HIERARCHY
ROOT Hips
{
	OFFSET 0.000000 0.000000 0.000000
	CHANNELS 6 Xposition Yposition Zposition Xrotation Yrotation Zrotation
	JOINT LeftUpLeg_virtual
	{
		OFFSET 0.000000 0.000000 0.000000
		CHANNELS 3 Xrotation Yrotation Zrotation
		JOINT LeftUpLeg
		{
			OFFSET 13.026900 -6.336304 -1.092800
			CHANNELS 3 Xrotation Yrotation Zrotation
			JOINT LeftLeg
			{
				OFFSET 0.524474 -46.096886 9.782700
				CHANNELS 3 Xrotation Yrotation Zrotation
				JOINT LeftFoot
				{
					OFFSET -0.524474 -53.427422 -12.948200
					CHANNELS 3 Xrotation Yrotation Zrotation
					JOINT LeftToeBase
					{
						OFFSET 0.192200 -14.009700 16.364100
						CHANNELS 3 Xrotation Yrotation Zrotation
						JOINT LeftToe_End
						{
							OFFSET -1.784700 -0.561700 9.474800
							CHANNELS 3 Xrotation Yrotation Zrotation
							End Site
							{
								OFFSET 0 0 0
							}
						}
					}
				}
			}
		}
	}
	JOINT RightUpLeg_virtual
	{
		OFFSET 0.000000 0.000000 0.000000
		CHANNELS 3 Xrotation Yrotation Zrotation
		JOINT RightUpLeg
		{
			OFFSET -12.883000 -6.336304 -1.092800
			CHANNELS 3 Xrotation Yrotation Zrotation
			JOINT RightLeg
			{
				OFFSET -0.524587 -46.096825 9.782800
				CHANNELS 3 Xrotation Yrotation Zrotation
				JOINT RightFoot
				{
					OFFSET 0.524587 -53.427383 -12.948300
					CHANNELS 3 Xrotation Yrotation Zrotation
					JOINT RightToeBase
					{
						OFFSET -0.192200 -14.009700 16.364100
						CHANNELS 3 Xrotation Yrotation Zrotation
						JOINT RightToe_End
						{
							OFFSET 1.784700 -0.561700 9.474800
							CHANNELS 3 Xrotation Yrotation Zrotation
							End Site
							{
								OFFSET 0 0 0
							}
						}
					}
				}
			}
		}
	}
	JOINT Spine_virtual
	{
		OFFSET 0.000000 0.000000 0.000000
		CHANNELS 3 Xrotation Yrotation Zrotation
		JOINT Spine
		{
			OFFSET 0.072000 7.257294 -0.789700
			CHANNELS 3 Xrotation Yrotation Zrotation
			JOINT Spine1
			{
				OFFSET 0.000000 12.508769 -0.658067
				CHANNELS 3 Xrotation Yrotation Zrotation
				JOINT Spine1_split
				{
					OFFSET 0.000000 12.508769 -0.658067
					CHANNELS 3 Xrotation Yrotation Zrotation
					JOINT Spine2
					{
						OFFSET 0.000000 12.508769 -0.658067
						CHANNELS 3 Xrotation Yrotation Zrotation
						JOINT Neck_virtual
						{
							OFFSET 0.000000 0.000000 0.000000
							CHANNELS 3 Xrotation Yrotation Zrotation
							JOINT Neck
							{
								OFFSET 0.000000 14.033295 7.520400
								CHANNELS 3 Xrotation Yrotation Zrotation
								JOINT Head
								{
									OFFSET 0.000000 8.198502 5.703100
									CHANNELS 3 Xrotation Yrotation Zrotation
									JOINT HeadTop_End
									{
										OFFSET 0.000000 17.760803 13.332701
										CHANNELS 3 Xrotation Yrotation Zrotation
										End Site
										{
											OFFSET 0 0 0
										}
									}
								}
							}
						}
						JOINT LeftShoulder_virtual
						{
							OFFSET 0.000000 0.000000 0.000000
							CHANNELS 3 Xrotation Yrotation Zrotation
							JOINT LeftShoulder
							{
								OFFSET 6.292450 5.785301 -0.669000
								CHANNELS 3 Xrotation Yrotation Zrotation
								JOINT LeftShoulder_split
								{
									OFFSET 6.292450 5.785301 -0.669000
									CHANNELS 3 Xrotation Yrotation Zrotation
									JOINT LeftArm
									{
										OFFSET 13.907140 -6.093903 1.965100
										CHANNELS 3 Xrotation Yrotation Zrotation
										JOINT LeftForeArm
										{
											OFFSET 34.140198 0.000000 0.000000
											CHANNELS 3 Xrotation Yrotation Zrotation
											JOINT LeftHand
											{
												OFFSET 40.960209 0.000000 0.000000
												CHANNELS 3 Xrotation Yrotation Zrotation
												End Site
												{
													OFFSET 0 0 0
												}
											}
										}
									}
								}
							}
						}
						JOINT RightShoulder_virtual
						{
							OFFSET 0.000000 0.000000 0.000000
							CHANNELS 3 Xrotation Yrotation Zrotation
							JOINT RightShoulder
							{
								OFFSET -6.292450 5.785301 -0.669000
								CHANNELS 3 Xrotation Yrotation Zrotation
								JOINT RightShoulder_split
								{
									OFFSET -6.292450 5.785301 -0.669000
									CHANNELS 3 Xrotation Yrotation Zrotation
									JOINT RightArm
									{
										OFFSET -13.907140 -6.093903 1.965100
										CHANNELS 3 Xrotation Yrotation Zrotation
										JOINT RightForeArm
										{
											OFFSET -34.140198 0.000000 0.000000
											CHANNELS 3 Xrotation Yrotation Zrotation
											JOINT RightHand
											{
												OFFSET -40.960209 0.000000 0.000000
												CHANNELS 3 Xrotation Yrotation Zrotation
												End Site
												{
													OFFSET 0 0 0
												}
											}
										}
									}
								}
							}
						}
					}
				}
			}
		}
	}
}
MOTION
Frames: 9
Frame Time: 0.03333333
-0.008320 111.173080 -0.827873 0.000000 0.000000 0.000000 5.049080 -15.753422 0.299640 -34.029273 2.858207 10.039606 27.829327 4.733740 1.429328 2.167996 0.369918 -6.419475 -0.359394 -1.379843 -0.238581 0.000000 0.000000 0.000000 5.049080 -15.753422 0.299640 -15.440860 -10.363898 -13.267187 28.537102 -6.391422 1.441445 -15.079111 -2.320966 11.748980 -1.225845 1.216098 -0.217466 0.000000 0.000000 0.000000 5.049080 -15.753422 0.299640 23.105348 4.417320 -0.474222 3.699121 1.240174 -0.846330 0.000000 0.000000 0.000000 0.000000 0.000000 0.000000 3.692592 1.312477 -0.857370 -12.698245 1.123398 2.281902 -14.088306 7.829660 -3.298854 0.000000 0.000000 0.000000 3.692592 1.312477 -0.857370 7.811587 -20.950973 9.744743 0.000000 0.000000 0.000000 -33.643022 -3.124198 -85.445619 0.000015 -42.998315 -4.823170 0.000000 0.000000 0.000000 3.692592 1.312477 -0.857370 13.917689 27.239903 -23.496411 0.000000 0.000000 0.000000 -43.128564 -5.411298 84.812228 0.000022 58.104590 5.767258 0.000000 0.000000 0.000000 
0.083833 111.119926 -0.893642 0.000000 0.000000 0.000000 5.038498 -16.335157 0.365271 -34.002861 2.859417 10.183010 28.005077 5.224096 1.411362 2.070726 0.391387 -6.543244 -0.283412 -1.290715 -0.296842 0.000000 0.000000 0.000000 5.038498 -16.335157 0.365271 -15.787286 -10.329877 -13.349789 28.696237 -5.806553 1.390101 -15.030764 -2.275374 11.599227 -1.219864 1.216311 -0.216681 0.000000 0.000000 0.000000 5.038498 -16.335157 0.365271 23.111577 4.503825 -0.476392 3.678783 1.304125 -0.850523 0.000000 0.000000 0.000000 0.000000 0.000000 0.000000 3.672122 1.375556 -0.864476 -13.000387 2.224550 1.887413 -13.930414 9.001494 -3.326597 0.000000 0.000000 0.000000 3.672122 1.375556 -0.864476 7.549175 -20.634830 8.867793 0.000000 0.000000 0.000000 -33.753986 -3.967012 -84.994020 0.000015 -43.669641 -3.983660 0.000000 0.000000 0.000000 3.672122 1.375556 -0.864476 12.767503 26.735608 -21.908240 0.000000 0.000000 0.000000 -43.497752 -2.834412 83.950982 0.000016 57.335736 5.420084 0.000000 0.000000 0.000000 
0.194989 111.026825 -1.011719 0.000000 0.000000 0.000000 5.047665 -17.118781 0.478508 -34.008372 2.821953 10.394159 28.267395 5.912529 1.336336 1.952498 0.415828 -6.711546 -0.254559 -1.317426 -0.333235 0.000000 0.000000 0.000000 5.047665 -17.118781 0.478508 -16.372341 -10.437210 -13.493448 28.980021 -4.861663 1.294907 -14.988445 -2.201867 11.343178 -1.212445 1.232841 -0.232084 0.000000 0.000000 0.000000 5.047665 -17.118781 0.478508 23.124440 4.604929 -0.498154 3.663203 1.389916 -0.859503 0.000000 0.000000 0.000000 0.000000 0.000000 0.000000 3.656710 1.460838 -0.877333 -13.267152 3.372221 1.453684 -13.847330 10.245875 -3.399599 0.000000 0.000000 0.000000 3.656710 1.460838 -0.877333 7.261359 -20.335573 7.874383 0.000000 0.000000 0.000000 -33.900763 -5.314808 -84.004169 0.000049 -44.245289 -3.519530 0.000000 0.000000 0.000000 3.656710 1.460838 -0.877333 11.748298 26.342281 -20.499932 0.000000 0.000000 0.000000 -43.948456 -0.105506 82.878724 0.000020 56.461165 5.193615 0.000000 0.000000 0.000000 
0.313997 110.908722 -1.187344 0.000000 0.000000 0.000000 5.047328 -18.098546 0.649801 -33.990378 2.785988 10.667086 28.570128 6.765583 1.196866 1.834102 0.442264 -6.916520 -0.252233 -1.255794 -0.322585 0.000000 0.000000 0.000000 5.047328 -18.098546 0.649801 -17.140742 -10.614530 -13.691828 29.370937 -3.634495 1.162091 -14.937979 -2.102259 10.992057 -1.210135 1.279769 -0.278144 0.000000 0.000000 0.000000 5.047328 -18.098546 0.649801 23.167343 4.704805 -0.544007 3.660468 1.487828 -0.885877 0.000000 0.000000 0.000000 0.000000 0.000000 0.000000 3.655082 1.560492 -0.895521 -13.501424 4.634399 1.000140 -13.749827 11.733747 -3.572299 0.000000 0.000000 0.000000 3.655082 1.560492 -0.895521 6.962386 -20.054499 6.756032 0.000000 0.000000 0.000000 -33.885832 -7.349570 -82.404463 0.000029 -44.931508 -3.390381 0.000000 0.000000 0.000000 3.655082 1.560492 -0.895521 10.875048 26.063604 -19.290432 0.000000 0.000000 0.000000 -44.441022 2.747479 81.617496 0.001816 55.545144 5.154159 0.000000 0.000000 0.000000 
0.428451 110.781876 -1.429310 0.000000 0.000000 0.000000 5.033924 -19.246360 0.877792 -33.940388 2.842023 10.989814 28.860787 7.682061 1.031501 1.744179 0.470685 -7.145954 -0.240878 -1.235067 -0.330361 0.000000 0.000000 0.000000 5.033924 -19.246360 0.877792 -18.029649 -10.731574 -13.913929 29.840799 -2.284810 1.021469 -14.860525 -1.981843 10.572664 -1.220531 1.346259 -0.345138 0.000000 0.000000 0.000000 5.033924 -19.246360 0.877792 23.243451 4.791366 -0.606063 3.668875 1.583143 -0.902792 0.000000 0.000000 0.000000 0.000000 0.000000 0.000000 3.663302 1.656447 -0.912981 -13.708107 6.096598 0.557707 -13.538467 13.536934 -3.874849 0.000000 0.000000 0.000000 3.663302 1.656447 -0.912981 6.630940 -19.782125 5.500065 0.000000 0.000000 0.000000 -33.566466 -10.041055 -80.260303 -0.000006 -45.740537 -3.520698 0.000000 0.000000 0.000000 3.663302 1.656447 -0.912981 10.141134 25.903170 -18.290195 0.000000 0.000000 0.000000 -44.920870 5.658994 80.225729 0.000040 54.575896 5.300011 0.000000 0.000000 0.000000 
0.524066 110.663841 -1.739017 0.000000 0.000000 0.000000 5.007118 -20.498446 1.139673 -33.838605 2.938337 11.361968 29.096944 8.649098 0.829397 1.709371 0.495748 -7.396575 -0.270857 -1.225428 -0.298772 0.000000 0.000000 0.000000 5.007118 -20.498446 1.139673 -18.973594 -10.772970 -14.095198 30.340602 -0.917082 0.845473 -14.741317 -1.851514 10.117995 -1.226612 1.388581 -0.387679 0.000000 0.000000 0.000000 5.007118 -20.498446 1.139673 23.341010 4.861588 -0.659464 3.687931 1.652887 -0.911045 0.000000 0.000000 0.000000 0.000000 0.000000 0.000000 3.682587 1.725120 -0.924894 -13.909345 7.678149 0.106567 -13.204881 15.492344 -4.165539 0.000000 0.000000 0.000000 3.682587 1.725120 -0.924894 6.287850 -19.495906 4.162846 0.000000 0.000000 0.000000 -32.899379 -13.092204 -77.826604 0.000033 -46.652794 -3.833060 0.000000 0.000000 0.000000 3.682587 1.725120 -0.924894 9.558181 25.876774 -17.509714 0.000000 0.000000 0.000000 -45.332208 8.548781 78.729234 0.000021 53.580454 5.607300 0.000000 0.000000 0.000000 
0.589122 110.564247 -2.113789 0.000000 0.000000 0.000000 4.968844 -21.784543 1.401075 -33.676398 2.977426 11.786862 29.264290 9.676261 0.572556 1.746156 0.519304 -7.670809 -0.318452 -1.220815 -0.249736 0.000000 0.000000 0.000000 4.968844 -21.784543 1.401075 -19.924343 -10.795666 -14.167261 30.832673 0.413504 0.581510 -14.577027 -1.716476 9.659070 -1.236732 1.434632 -0.434407 0.000000 0.000000 0.000000 4.968844 -21.784543 1.401075 23.454229 4.888929 -0.698234 3.708953 1.692454 -0.915575 0.000000 0.000000 0.000000 0.000000 0.000000 0.000000 3.703498 1.765227 -0.932843 -14.122326 9.083798 -0.445237 -12.969018 17.007757 -4.124309 0.000000 0.000000 0.000000 3.703498 1.765227 -0.932843 5.948445 -19.180588 2.812164 0.000000 0.000000 0.000000 -32.147952 -15.976636 -75.485741 0.000026 -47.368332 -4.172877 0.000000 0.000000 0.000000 3.703498 1.765227 -0.932843 9.145407 25.991914 -16.971917 0.000000 0.000000 0.000000 -45.633484 11.322917 77.146461 0.000009 52.609713 6.041628 0.000000 0.000000 0.000000 
0.616398 110.481880 -2.549450 0.000000 0.000000 0.000000 4.928154 -23.047341 1.630834 -33.535525 3.176537 12.240865 29.349497 10.519959 0.405967 1.853797 0.542893 -7.945082 -0.215047 -1.099838 -0.328486 0.000000 0.000000 0.000000 4.928154 -23.047341 1.630834 -20.801339 -10.640502 -14.103144 31.300974 1.505271 0.325130 -14.376838 -1.589009 9.227766 -1.221115 1.489312 -0.486558 0.000000 0.000000 0.000000 4.928154 -23.047341 1.630834 23.554329 4.875049 -0.738941 3.739307 1.694160 -0.920172 0.000000 0.000000 0.000000 0.000000 0.000000 0.000000 3.734091 1.765038 -0.938073 -14.366770 9.949446 -1.200224 -13.219104 17.071725 -3.444221 0.000000 0.000000 0.000000 3.734091 1.765038 -0.938073 5.650902 -18.837392 1.510725 0.000000 0.000000 0.000000 -31.402167 -18.491265 -73.461908 0.000019 -47.987215 -4.384433 0.000000 0.000000 0.000000 3.734091 1.765038 -0.938073 8.923080 26.228317 -16.717805 0.000000 0.000000 0.000000 -45.826000 13.908181 75.515576 0.000016 51.703385 6.556072 0.000000 0.000000 0.000000 
0.604633 110.411774 -3.037621 0.000000 0.000000 0.000000 4.897044 -24.256708 1.805453 -33.390677 3.257655 12.764203 29.395703 11.382079 0.201229 2.024639 0.557501 -8.238972 -0.219915 -1.090377 -0.324703 0.000000 0.000000 0.000000 4.897044 -24.256708 1.805453 -21.628745 -10.471379 -13.881724 31.737468 2.459742 0.020936 -14.148956 -1.466058 8.812478 -1.219679 1.499302 -0.496249 0.000000 0.000000 0.000000 4.897044 -24.256708 1.805453 23.638480 4.795959 -0.779431 3.760043 1.658696 -0.929140 0.000000 0.000000 0.000000 0.000000 0.000000 0.000000 3.754872 1.729415 -0.946482 -14.582063 10.083408 -2.136422 -14.185435 14.646332 -2.125815 0.000000 0.000000 0.000000 3.754872 1.729415 -0.946482 5.330262 -18.462971 0.278288 0.000000 0.000000 0.000000 -30.589292 -20.572839 -71.820231 -0.001298 -48.598179 -4.439787 0.000000 0.000000 0.000000 3.754872 1.729415 -0.946482 8.905809 26.587573 -16.735495 0.000000 0.000000 0.000000 -45.903874 16.248216 73.874138 0.000034 50.892542 7.138371 0.000000 0.000000 0.000000 
